# xmcd
#
# Track frame offsets:
#	150
#	15415
#	33702
#	45335
#	59835
#	77202
#	94840
#	108407
#	124115
#	136820
#	152645
#	169810
#	185905
#	202727
#
# Disc length: 2876
#
# Revision: 2
# Processed by: cddbd v1.5.1PL0 Copyright (c) Steve Scherf et al.
# Submitted via: EasyCDDAExtractor 6.0.0.1
# Normalized: r1:DSETVAR1
#
DISCID=ba0b3a0e
DTITLE=Various Artist - CDX Volume 65 September 1993
DYEAR=1993
DGENRE=Country
TTITLE0=Andy Childs - Broken
TTITLE1=Radney Foster - Hammer and Nails
TTITLE2=Kelly Willis - Heaven's Just a Sin Away
TTITLE3=Emmylou Harris - High Powered Love
TTITLE4=Doug Supernaw - I Don't Call Him Daddy
TTITLE5=Charlie Pride - Just for the Love of it
TTITLE6=Randy Huston - Lookin the Wolf in the Eye
TTITLE7=Diana Murrel - Mama's Cedar Chest
TTITLE8=Tracy Lawrence - My Second Home
TTITLE9=Gibson Miller Band - Small Price
TTITLE10=Billy Ray Cyrus - Somebody New
TTITLE11=Willie Nelson - Still is Still Moving to Me
TTITLE12=Carlene Carter - Unbreakable Heart
TTITLE13=Ralph Standley - Down Where the River Bends
EXTD=
EXTT0=
EXTT1=
EXTT2=
EXTT3=
EXTT4=
EXTT5=
EXTT6=
EXTT7=
EXTT8=
EXTT9=
EXTT10=
EXTT11=
EXTT12=
EXTT13=
PLAYORDER=
